<?xml version="1.0" encoding="utf-8"?>
<!-- Generator: Adobe Illustrator 25.2.0, SVG Export Plug-In . SVG Version: 6.00 Build 0)  -->
<svg version="1.1" id="Capa_1" xmlns="http://www.w3.org/2000/svg" xmlns:xlink="http://www.w3.org/1999/xlink" x="0px" y="0px"
	 viewBox="0 0 512 512" style="enable-background:new 0 0 512 512;" xml:space="preserve">
<style type="text/css">
	.st0{fill:#DDDDDD;}
</style>
<g>
	<g>
		<path class="st0" d="M446.6,0H65.4C29.3,0,0,29.4,0,65.4v381.1C0,482.6,29.3,512,65.4,512h381.2c36.1,0,65.4-29.4,65.4-65.4V65.4
			C512,29.4,482.7,0,446.6,0z M481.8,446.6c0,19.4-15.8,35.3-35.3,35.3H65.4c-19.4,0-35.3-15.8-35.3-35.3v-55l99.3-84.5
			c3.6-3.1,8.9-3.1,12.6-0.1l62.2,51.6c6,5,14.8,4.6,20.3-0.9l147.7-148c2.7-2.7,5.8-2.9,7.4-2.9c1.6,0.1,4.7,0.7,7.1,3.6
			l95.2,117.2L481.8,446.6L481.8,446.6z M481.8,279.9l-71.8-88.4c-7.1-8.8-17.7-14.1-28.9-14.7c-11.3-0.6-22.3,3.7-30.3,11.7
			l-138,138.2l-51.6-42.8c-15-12.4-36.6-12.3-51.4,0.3L30.2,352V65.4C30.2,46,46,30.2,65.4,30.2h381.2c19.4,0,35.3,15.8,35.3,35.3
			V279.9z"/>
	</g>
</g>
<g>
	<g>
		<path class="st0" d="M161.2,63c-40.1,0-72.7,32.6-72.7,72.7c0,40.1,32.6,72.7,72.7,72.7s72.7-32.6,72.7-72.7S201.3,63,161.2,63z
			 M161.2,178.3c-23.5,0-42.6-19.1-42.6-42.6c0-23.5,19.1-42.6,42.6-42.6s42.6,19.1,42.6,42.6S184.6,178.3,161.2,178.3z"/>
	</g>
</g>
</svg>
