<?xml version="1.0" encoding="utf-8"?>
<!-- Generator: Adobe Illustrator 25.2.0, SVG Export Plug-In . SVG Version: 6.00 Build 0)  -->
<svg version="1.1" id="Ebene_1" xmlns="http://www.w3.org/2000/svg" xmlns:xlink="http://www.w3.org/1999/xlink" x="0px" y="0px"
	 viewBox="0 0 512 512" style="enable-background:new 0 0 512 512;" xml:space="preserve">
<style type="text/css">
	.st0{fill:#777777;}
</style>
<g>
	<g>
		<g>
			<g>
				<path class="st0" d="M114.9,36.3H10.4C4.7,36.3,0,41,0,46.8v104.5c0,5.8,4.7,10.4,10.4,10.4h104.5c5.8,0,10.4-4.7,10.4-10.4
					V46.8C125.4,41,120.7,36.3,114.9,36.3z"/>
				<path class="st0" d="M501.6,36.3H167.1c-5.8,0-10.4,4.7-10.4,10.4v104.5c0,5.8,4.7,10.4,10.4,10.4h334.5
					c5.8,0,10.4-4.7,10.4-10.4V46.8C512,41,507.3,36.3,501.6,36.3z"/>
			</g>
		</g>
	</g>
	<g>
		<g>
			<g>
				<path class="st0" d="M114.9,193.3H10.4C4.7,193.3,0,198,0,203.8v104.5c0,5.8,4.7,10.4,10.4,10.4h104.5c5.8,0,10.4-4.7,10.4-10.4
					V203.8C125.4,198,120.7,193.3,114.9,193.3z"/>
				<path class="st0" d="M501.6,193.3H167.1c-5.8,0-10.4,4.7-10.4,10.4v104.5c0,5.8,4.7,10.4,10.4,10.4h334.5
					c5.8,0,10.4-4.7,10.4-10.4V203.8C512,198,507.3,193.3,501.6,193.3z"/>
			</g>
		</g>
	</g>
	<g>
		<g>
			<g>
				<path class="st0" d="M114.9,350.3H10.4C4.7,350.3,0,355,0,360.8v104.5c0,5.8,4.7,10.4,10.4,10.4h104.5c5.8,0,10.4-4.7,10.4-10.4
					V360.8C125.4,355,120.7,350.3,114.9,350.3z"/>
				<path class="st0" d="M501.6,350.3H167.1c-5.8,0-10.4,4.7-10.4,10.4v104.5c0,5.8,4.7,10.4,10.4,10.4h334.5
					c5.8,0,10.4-4.7,10.4-10.4V360.8C512,355,507.3,350.3,501.6,350.3z"/>
			</g>
		</g>
	</g>
</g>
</svg>
