<?xml version="1.0" encoding="utf-8"?>
<!-- Generator: Adobe Illustrator 25.2.0, SVG Export Plug-In . SVG Version: 6.00 Build 0)  -->
<svg version="1.1" id="Ebene_1" xmlns="http://www.w3.org/2000/svg" xmlns:xlink="http://www.w3.org/1999/xlink" x="0px" y="0px"
	 viewBox="0 0 512 512" style="enable-background:new 0 0 512 512;" xml:space="preserve">
<style type="text/css">
	.st0{fill-rule:evenodd;clip-rule:evenodd;fill:#CCCCCC;}
</style>
<g>
	<path class="st0" d="M471.6,206.7H130.4l327.7-94.9c2.5-0.7,4.7-2.5,6-4.8c1.3-2.3,1.6-5.1,0.8-7.6l-17.1-59.2
		C440.9,16.5,418.9,0,394.3,0c-5.2,0-10.4,0.7-15.4,2.2L71.2,91.3c-14.2,4.1-26,13.6-33.2,26.6c-7.2,13.1-8.9,28.1-4.8,42.3
		L50,218.1v238.3c0,30.7,25,55.7,55.6,55.7h120.2c5.5,0,10-4.5,10-10s-4.5-10-10-10H105.6C86,492,70,476,70,456.3V320.3h51.2h0h0
		h78.3h0h0h78.3h0h0h78.3h0h0h105.3v136.1c0,19.7-16,35.7-35.7,35.7H305.8c-5.5,0-10,4.5-10,10s4.5,10,10,10h120.2
		c30.7,0,55.7-25,55.7-55.7V216.7C481.6,211.2,477.1,206.7,471.6,206.7z M295.3,300.3l42.5-73.6H393l-42.5,73.6H295.3z M216.9,300.3
		l42.5-73.6h55.3l-42.5,73.6H216.9z M138.5,300.3l42.5-73.6h55.3l-42.5,73.6H138.5z M175.7,170.8l-71.1-68.3L157.9,87
		c0.4,0.5,0.8,1.1,1.3,1.5l71.1,68.3L177,172.3C176.7,171.8,176.2,171.3,175.7,170.8z M309.7,45l71.1,68.3l-53.3,15.4
		c-0.4-0.5-0.8-1.1-1.3-1.5l-71.1-68.3l53.3-15.4C308.8,44,309.2,44.5,309.7,45z M234.5,66.8l71.1,68.3l-53.3,15.4
		c-0.4-0.5-0.8-1.1-1.3-1.5l-71.1-68.3l53.3-15.4C233.5,65.8,234,66.3,234.5,66.8z M384.4,21.4c3.2-0.9,6.5-1.4,9.8-1.4
		c15.8,0,29.9,10.6,34.3,25.7l14.4,49.6l-40.1,11.6c-0.4-0.5-0.8-1.1-1.3-1.5l-71.1-68.3L384.4,21.4z M55.5,127.6
		c4.6-8.4,12.2-14.4,21.3-17.1l5.9-1.7c0.4,0.5,0.8,1.1,1.3,1.5l71.1,68.3l-88.3,25.6l-14.4-49.6C49.8,145.6,50.9,136,55.5,127.6z
		 M70,226.7h88l-42.5,73.6H70V226.7z M373.6,300.3l42.5-73.6h45.5v73.6H373.6z"/>
	<path class="st0" d="M334.9,405.1c0-3.6-1.9-6.9-5-8.7l-87.9-50.7c-3.1-1.8-6.9-1.8-10,0s-5,5.1-5,8.7v101.4c0,3.6,1.9,6.9,5,8.7
		c1.5,0.9,3.3,1.3,5,1.3s3.5-0.4,5-1.3l87.9-50.7C333,412,334.9,408.7,334.9,405.1z M247.1,438.5v-66.8l57.9,33.4L247.1,438.5z"/>
	<path class="st0" d="M265.8,492c-5.5,0-10,4.5-10,10s4.5,10,10,10c5.5,0,10-4.5,10-10S271.3,492,265.8,492z"/>
</g>
</svg>
